Logitech Webcam C160

usb 1-2: new high speed USB device using ehci_hcd and address 4
uvcvideo: Found UVC 1.00 device <unnamed> (046d:0824)
###################################################################
[cfyeh-test] usb_set_configuration(1454)
Don't support this usb device or don't insert correct module yet!!!
bus_id 1-2:1.1 (config #1, interface 1)
###################################################################
###################################################################
[cfyeh-test] usb_set_configuration(1454)
Don't support this usb device or don't insert correct module yet!!!
bus_id 1-2:1.2 (config #1, interface 2)
###################################################################
###################################################################
[cfyeh-test] usb_set_configuration(1454)
Don't support this usb device or don't insert correct module yet!!!
bus_id 1-2:1.3 (config #1, interface 3)
###################################################################
/ # ls /dev/v4l/video0 
/dev/v4l/video0


(rmmod and insmod uvcvideo.ko)

usbcore: deregistering driver uvcvideo
uvcvideo: Found UVC 1.00 device <unnamed> (046d:0824)
usbcore: registered new driver uvcvideo
USB Video Class driver (SVN r201)


ffmpeg not working.

/tmp/usbmounts/sda1/PUBLIC/IPK # /opt/bin/ffmpeg -r 1 -f video4linux -s 320x240 -i /dev/v4l/video0 -t 5 -y test1.avi 
FFmpeg version UNKNOWN, Copyright (c) 2000-2008 Fabrice Bellard, et al.
  configuration: --enable-cross-compile --cross-prefix=/home/slug/optware/oleg/toolchain/mipsel-linux-uclibc/gcc-4.1.1-uclibc-0.9.28/bin/mipsel-linux-uclibc- --arch=mipsel --disable-encoder=snow --disable-decoder=snow --enable-shared --disable-static --enable-gpl --enable-postproc --prefix=/opt
  libavutil version: 49.6.0
  libavcodec version: 51.54.0
  libavformat version: 52.13.0
  libavdevice version: 52.0.0
  built on Nov 23 2010 22:56:54, gcc: 4.1.1
Input #0, video4linux, from '/dev/v4l/video0':
  Duration: N/A, bitrate: 921 kb/s
    Stream #0.0: Video: rawvideo, yuv420p, 320x240, 921 kb/s,  1.00 tb(r)
Output #0, avi, to 'test1.avi':
    Stream #0.0: Video: mpeg4, yuv420p, 320x240, q=2-31, 200 kb/s,  1.00 tb(c)
Stream mapping:
  Stream #0.0 -> #0.0
Press [q] to stop encoding
frame=    0 fps=  0 q=0.0 Lsize=       6kB time=10000000000.0 bitrate=   0.0kbits/s    
video:0kB audio:0kB global headers:0kB muxing overhead inf%


/tmp/usbmounts/sda1/PUBLIC/IPK # ./hellov4l2 -d /dev/v4l/video0 
[1.open_device] open /dev/v4l/video0 
[2.init_device] /dev/v4l/video0 is V4L2 device
[2.init_device] /dev/v4l/video0 is video capture device
/dev/v4l/video0 cap.driver is uvcvideo
/dev/v4l/video0 cap.card is UVC Camera (046d:0824)
/dev/v4l/video0 cap.version is 256
/dev/v4l/video0 is capable of streaming i/o
Format desc = YUV 4:2:2 (YUYV)
/dev/v4l/video0 supports 'YUV 4:2:2 (YUYV)' (raw format, V4L2_PIX_FMT_YUYV)
Format desc = MJPEG
/dev/v4l/video0 supports 'MJPEG' (compressed format, V4L2_PIX_FMT_MJPEG)
select timeout

